HIERARCHY
ROOT Hips
{
    OFFSET 0.000000 0.000000 0.000000
    CHANNELS 6 Xposition Yposition Zposition Zrotation Yrotation Xrotation
    JOINT Chest
    {
        OFFSET 0.000000 1.634758 -0.000000
        CHANNELS 3 Zrotation Yrotation Xrotation
        JOINT Chest2
        {
            OFFSET 0.000000 2.197341 0.000000
            CHANNELS 3 Zrotation Yrotation Xrotation
            JOINT Neck
            {
                OFFSET 0.000000 0.961544 0.000000
                CHANNELS 3 Zrotation Yrotation Xrotation
                JOINT Head
                {
                    OFFSET 0.000000 0.632542 -0.032565
                    CHANNELS 3 Zrotation Yrotation Xrotation
                    End Site
                    {
                        OFFSET -0.000001 0.439502 2.922845
                    }
                }
            }
            JOINT LeftCollar
            {
                OFFSET 0.167536 0.778237 -0.168280
                CHANNELS 3 Zrotation Yrotation Xrotation
                JOINT LeftShoulder
                {
                    OFFSET 0.831514 -0.002900 0.006458
                    CHANNELS 3 Zrotation Yrotation Xrotation
                    JOINT LeftElbow
                    {
                        OFFSET 2.272872 -0.026639 0.059314
                        CHANNELS 3 Zrotation Yrotation Xrotation
                        JOINT LeftWrist
                        {
                            OFFSET 2.081982 -0.024402 0.054333
                            CHANNELS 3 Zrotation Yrotation Xrotation
                            JOINT LeftHandThumb1
                            {
                                OFFSET 0.218903 -0.128645 0.283837
                                CHANNELS 3 Zrotation Yrotation Xrotation
                                JOINT LeftHandThumb2
                                {
                                    OFFSET 0.137157 -0.025101 0.077902
                                    CHANNELS 3 Zrotation Yrotation Xrotation
                                    JOINT LeftHandThumb3
                                    {
                                        OFFSET 0.165861 -0.067014 0.039226
                                        CHANNELS 3 Zrotation Yrotation Xrotation
                                        End Site
                                        {
                                            OFFSET 0.241157 -0.045065 0.107930
                                        }
                                    }
                                }
                            }
                            JOINT LeftHandFore1
                            {
                                OFFSET 0.767340 -0.016076 0.196678
                                CHANNELS 3 Zrotation Yrotation Xrotation
                                JOINT LeftHandFore2
                                {
                                    OFFSET 0.207679 -0.061002 0.011988
                                    CHANNELS 3 Zrotation Yrotation Xrotation
                                    JOINT LeftHandFore3
                                    {
                                        OFFSET 0.113929 -0.061007 0.007824
                                        CHANNELS 3 Zrotation Yrotation Xrotation
                                        End Site
                                        {
                                            OFFSET 0.154658 -0.115670 0.008243
                                        }
                                    }
                                }
                            }
                            JOINT LeftHandMiddle1
                            {
                                OFFSET 0.709887 -0.008320 0.018526
                                CHANNELS 3 Zrotation Yrotation Xrotation
                                JOINT LeftHandMiddle2
                                {
                                    OFFSET 0.234599 -0.070490 0.007649
                                    CHANNELS 3 Zrotation Yrotation Xrotation
                                    JOINT LeftHandMiddle3
                                    {
                                        OFFSET 0.130725 -0.065323 0.005208
                                        CHANNELS 3 Zrotation Yrotation Xrotation
                                        End Site
                                        {
                                            OFFSET 0.186384 -0.144204 0.009817
                                        }
                                    }
                                }
                            }
                            JOINT LeftHandRing1
                            {
                                OFFSET 0.743817 -0.005823 -0.153668
                                CHANNELS 3 Zrotation Yrotation Xrotation
                                JOINT LeftHandRing2
                                {
                                    OFFSET 0.335406 -0.110247 -0.009039
                                    CHANNELS 3 Zrotation Yrotation Xrotation
                                    JOINT LeftHandRing3
                                    {
                                        OFFSET 0.118172 -0.068093 0.002040
                                        CHANNELS 3 Zrotation Yrotation Xrotation
                                        End Site
                                        {
                                            OFFSET 0.087533 -0.082180 0.002054
                                        }
                                    }
                                }
                            }
                            JOINT LeftHandLittle1
                            {
                                OFFSET 0.689408 -0.053302 -0.308304
                                CHANNELS 3 Zrotation Yrotation Xrotation
                                JOINT LeftHandLittle2
                                {
                                    OFFSET 0.187288 -0.051249 -0.018728
                                    CHANNELS 3 Zrotation Yrotation Xrotation
                                    JOINT LeftHandLittle3
                                    {
                                        OFFSET 0.101298 -0.063954 -0.012034
                                        CHANNELS 3 Zrotation Yrotation Xrotation
                                        End Site
                                        {
                                            OFFSET 0.158504 -0.105051 -0.011381
                                        }
                                    }
                                }
                            }
                        }
                    }
                }
            }
            JOINT RightCollar
            {
                OFFSET -0.167536 0.778237 -0.168280
                CHANNELS 3 Zrotation Yrotation Xrotation
                JOINT RightShoulder
                {
                    OFFSET -0.831514 -0.002900 0.006457
                    CHANNELS 3 Zrotation Yrotation Xrotation
                    JOINT RightElbow
                    {
                        OFFSET -2.272872 -0.026639 0.059313
                        CHANNELS 3 Zrotation Yrotation Xrotation
                        JOINT RightWrist
                        {
                            OFFSET -2.081982 -0.024402 0.054331
                            CHANNELS 3 Zrotation Yrotation Xrotation
                            JOINT RightHandThumb1
                            {
                                OFFSET -0.218911 -0.128571 0.283837
                                CHANNELS 3 Zrotation Yrotation Xrotation
                                JOINT RightHandThumb2
                                {
                                    OFFSET -0.137157 -0.025101 0.077902
                                    CHANNELS 3 Zrotation Yrotation Xrotation
                                    JOINT RightHandThumb3
                                    {
                                        OFFSET -0.165861 -0.067014 0.039226
                                        CHANNELS 3 Zrotation Yrotation Xrotation
                                        End Site
                                        {
                                            OFFSET -0.229436 -0.065997 0.121819
                                        }
                                    }
                                }
                            }
                            JOINT RightHandFore1
                            {
                                OFFSET -0.767344 -0.015991 0.196679
                                CHANNELS 3 Zrotation Yrotation Xrotation
                                JOINT RightHandFore2
                                {
                                    OFFSET -0.215182 -0.023988 0.010864
                                    CHANNELS 3 Zrotation Yrotation Xrotation
                                    JOINT RightHandFore3
                                    {
                                        OFFSET -0.114095 -0.061027 0.004509
                                        CHANNELS 3 Zrotation Yrotation Xrotation
                                        End Site
                                        {
                                            OFFSET -0.132268 -0.140798 0.006924
                                        }
                                    }
                                }
                            }
                            JOINT RightHandMiddle1
                            {
                                OFFSET -0.709887 -0.008302 0.018525
                                CHANNELS 3 Zrotation Yrotation Xrotation
                                JOINT RightHandMiddle2
                                {
                                    OFFSET -0.218749 -0.110176 0.008494
                                    CHANNELS 3 Zrotation Yrotation Xrotation
                                    JOINT RightHandMiddle3
                                    {
                                        OFFSET -0.100548 -0.106138 0.003039
                                        CHANNELS 3 Zrotation Yrotation Xrotation
                                        End Site
                                        {
                                            OFFSET -0.089556 -0.218197 0.000013
                                        }
                                    }
                                }
                            }
                            JOINT RightHandRing1
                            {
                                OFFSET -0.743819 -0.005785 -0.153669
                                CHANNELS 3 Zrotation Yrotation Xrotation
                                JOINT RightHandRing2
                                {
                                    OFFSET -0.311318 -0.166521 -0.009226
                                    CHANNELS 3 Zrotation Yrotation Xrotation
                                    JOINT RightHandRing3
                                    {
                                        OFFSET -0.087626 -0.103982 -0.010697
                                        CHANNELS 3 Zrotation Yrotation Xrotation
                                        End Site
                                        {
                                            OFFSET -0.034602 -0.114568 -0.009857
                                        }
                                    }
                                }
                            }
                            JOINT RightHandLittle1
                            {
                                OFFSET -0.689403 -0.053298 -0.308303
                                CHANNELS 3 Zrotation Yrotation Xrotation
                                JOINT RightHandLittle2
                                {
                                    OFFSET -0.175836 -0.082221 -0.019405
                                    CHANNELS 3 Zrotation Yrotation Xrotation
                                    JOINT RightHandLittle3
                                    {
                                        OFFSET -0.073712 -0.094386 -0.012381
                                        CHANNELS 3 Zrotation Yrotation Xrotation
                                        End Site
                                        {
                                            OFFSET -0.084335 -0.168836 -0.025896
                                        }
                                    }
                                }
                            }
                        }
                    }
                }
            }
        }
    }
    JOINT LeftHip
    {
        OFFSET 0.685143 0.673822 -0.044491
        CHANNELS 3 Zrotation Yrotation Xrotation
        JOINT LeftKnee
        {
            OFFSET 0.085364 -3.750208 0.017676
            CHANNELS 3 Zrotation Yrotation Xrotation
            JOINT LeftAnkle
            {
                OFFSET 0.094583 -4.155206 0.019585
                CHANNELS 3 Zrotation Yrotation Xrotation
                JOINT LeftToe
                {
                    OFFSET -0.000000 -0.395925 0.621478
                    CHANNELS 3 Zrotation Yrotation Xrotation
                    End Site
                    {
                        OFFSET -0.000000 -0.077878 0.321152
                    }
                }
            }
        }
    }
    JOINT RightHip
    {
        OFFSET -0.685143 0.673822 -0.044492
        CHANNELS 3 Zrotation Yrotation Xrotation
        JOINT RightKnee
        {
            OFFSET -0.085364 -3.750208 0.017677
            CHANNELS 3 Zrotation Yrotation Xrotation
            JOINT RightAnkle
            {
                OFFSET -0.094583 -4.155206 0.019585
                CHANNELS 3 Zrotation Yrotation Xrotation
                JOINT RightToe
                {
                    OFFSET -0.000000 -0.395925 0.621478
                    CHANNELS 3 Zrotation Yrotation Xrotation
                    End Site
                    {
                        OFFSET -0.000000 -0.077878 0.321152
                    }
                }
            }
        }
    }
}
MOTION
Frames: 6
Frame Time: 0.033333
0.354085 8.804865 -0.787611 -176.562256 -12.605075 173.124512 1.966940 -12.911671 2.701317 -0.127088 1.994041 -3.647472 -18.504444 18.664934 4.631321 -2.660678 42.040306 8.569156 -13.883547 -2.625055 0.476998 -56.393307 10.150488 1.702232 0.077651 -26.600943 -0.335810 2.085399 -2.609261 13.567021 0.000003 -0.000000 0.000000 -0.000001 0.000005 0.000000 0.000003 -0.000000 -0.000001 0.000001 -0.000002 0.000000 -0.000002 0.000002 -0.000004 -0.000005 0.000002 0.000001 0.000001 -0.000000 -0.000002 0.000005 0.000002 0.000003 0.000003 -0.000000 -0.000002 -0.000001 -0.000002 0.000001 0.000001 0.000003 -0.000002 -0.000004 0.000002 -0.000002 -0.000004 -0.000000 0.000003 0.000003 -0.000002 -0.000001 -0.000003 0.000003 -0.000003 13.636950 -1.310919 -0.473235 54.531857 -8.900973 1.504920 -0.059583 23.580982 -0.292745 -6.882639 -6.349282 11.964945 0.000001 -0.000000 -0.000001 -0.000004 -0.000001 0.000001 -0.000001 -0.000002 0.000002 0.000000 -0.000000 -0.000001 -0.000001 -0.000003 0.000001 0.000001 0.000002 0.000003 -0.000002 -0.000001 -0.000001 -0.000001 -0.000002 0.000000 -0.000005 -0.000000 0.000001 -0.000002 -0.000001 -0.000003 0.000002 -0.000003 0.000002 -0.000005 0.000001 -0.000003 0.000000 -0.000003 0.000000 0.000005 -0.000001 -0.000001 -0.000001 0.000002 -0.000001 7.688831 34.715939 11.798607 0.032576 0.289637 12.831617 2.324113 -1.804078 -22.332338 -0.000002 -0.000007 -0.000006 8.552292 0.160561 -5.345456 -0.028306 -0.270268 11.960119 -9.455548 -13.452548 -4.784984 0.000000 -0.000001 -0.000001
0.354308 8.804573 -0.787575 -176.562256 -12.605078 173.124496 1.960367 -12.912978 2.701987 -0.133526 1.994677 -3.648297 -18.506189 18.664270 4.626528 -2.660800 42.041641 8.559839 -13.876828 -2.631076 0.477005 -56.368523 10.180855 1.710724 0.078311 -26.702000 -0.337289 2.086539 -2.603871 13.551760 0.000014 0.000002 0.000000 -0.000003 0.000002 -0.000002 0.000004 -0.000002 -0.000001 0.000007 0.000002 0.000008 0.000002 0.000003 0.000003 0.000001 -0.000000 0.000002 0.000008 -0.000005 0.000011 0.000000 0.000005 -0.000001 0.000004 -0.000003 -0.000003 0.000010 -0.000009 0.000015 0.000003 -0.000000 0.000001 -0.000001 -0.000002 -0.000003 0.000002 -0.000003 0.000014 0.000004 0.000002 0.000001 -0.000001 0.000002 0.000000 13.635872 -1.306668 -0.473461 54.534298 -8.934626 1.544570 -0.060190 23.691212 -0.294282 -6.883153 -6.362933 11.979743 -0.000010 0.000007 -0.000009 0.000003 -0.000002 0.000003 -0.000003 -0.000005 0.000000 -0.000005 0.000009 0.000000 -0.000005 0.000002 0.000002 0.000005 -0.000005 0.000001 -0.000016 0.000010 -0.000002 0.000003 -0.000000 -0.000003 -0.000002 0.000002 0.000002 -0.000019 0.000009 0.000001 0.000006 0.000002 0.000002 -0.000009 -0.000000 0.000000 -0.000006 0.000003 0.000000 0.000008 -0.000002 -0.000002 0.000004 -0.000000 0.000001 7.688770 34.709442 11.773817 0.032796 0.290610 12.875242 2.328950 -1.782040 -22.347832 -0.000000 -0.000002 -0.000005 8.553897 0.163605 -5.377465 -0.028586 -0.271586 12.019361 -9.449746 -13.458714 -4.811410 -0.000000 -0.000000 0.000001
0.354965 8.803709 -0.787469 -176.562256 -12.605080 173.124496 1.940947 -12.916839 2.703961 -0.152541 1.996551 -3.650715 -18.511335 18.662315 4.612363 -2.661171 42.045567 8.532326 -13.857126 -2.648599 0.477028 -56.295765 10.269371 1.735367 0.080234 -26.996277 -0.341611 2.089903 -2.587995 13.507298 0.000006 0.000005 -0.000003 -0.000001 -0.000000 -0.000002 0.000004 -0.000000 0.000000 0.000011 0.000007 0.000006 -0.000003 -0.000000 0.000001 -0.000003 -0.000002 -0.000001 0.000010 0.000003 0.000013 0.000000 -0.000003 0.000003 -0.000004 0.000002 0.000001 0.000006 -0.000005 0.000009 0.000002 0.000002 -0.000002 0.000001 -0.000002 0.000002 0.000004 -0.000002 0.000013 0.000003 0.000005 -0.000002 -0.000002 -0.000000 0.000001 13.632896 -1.294359 -0.474139 54.541473 -9.031248 1.660188 -0.061974 24.009411 -0.298727 -6.884612 -6.402668 12.022314 0.000001 0.000017 -0.000012 0.000003 -0.000002 -0.000002 -0.000003 -0.000000 0.000000 0.000000 0.000012 -0.000001 0.000000 -0.000002 0.000001 -0.000002 -0.000002 0.000000 -0.000001 0.000009 -0.000004 0.000001 -0.000000 0.000000 -0.000006 -0.000000 0.000001 0.000006 0.000007 0.000003 0.000006 -0.000002 0.000000 -0.000004 0.000002 0.000000 0.000004 0.000007 0.000008 0.000005 -0.000003 -0.000001 -0.000006 -0.000000 -0.000003 7.688569 34.690231 11.700880 0.033450 0.293460 13.003516 2.342793 -1.717249 -22.393242 -0.000001 -0.000005 -0.000002 8.558624 0.172609 -5.471450 -0.029416 -0.275457 12.193204 -9.432709 -13.476857 -4.888917 -0.000001 -0.000001 -0.000001
0.356040 8.802296 -0.787292 -176.562256 -12.605079 173.124496 1.909142 -12.923154 2.707212 -0.183676 1.999615 -3.654643 -18.519777 18.659082 4.589152 -2.661765 42.051945 8.487246 -13.825115 -2.676813 0.477072 -56.177280 10.410193 1.774922 0.083394 -27.466379 -0.348561 2.095434 -2.562057 13.435637 0.000010 0.000005 -0.000009 -0.000004 0.000002 -0.000001 -0.000001 -0.000003 -0.000002 0.000009 0.000009 -0.000005 0.000002 -0.000000 0.000000 -0.000005 -0.000000 -0.000001 0.000017 0.000003 -0.000006 -0.000003 -0.000002 -0.000001 0.000004 0.000002 0.000000 0.000010 0.000003 -0.000002 0.000006 -0.000003 0.000000 -0.000006 0.000003 0.000002 0.000014 0.000009 -0.000002 0.000002 -0.000002 0.000000 0.000000 -0.000002 -0.000001 13.628139 -1.274633 -0.475251 54.552765 -9.183552 1.846820 -0.064849 24.515406 -0.305847 -6.886954 -6.466634 12.089919 -0.000003 0.000007 -0.000014 0.000003 -0.000002 -0.000003 -0.000001 -0.000003 0.000001 -0.000018 -0.000003 -0.000007 -0.000003 0.000002 0.000000 0.000001 -0.000002 -0.000003 -0.000011 -0.000002 -0.000006 0.000002 -0.000002 0.000000 -0.000001 -0.000000 0.000000 -0.000012 -0.000003 -0.000003 0.000001 0.000002 0.000000 -0.000004 -0.000000 0.000001 -0.000007 -0.000003 -0.000001 0.000007 -0.000002 -0.000004 -0.000006 -0.000000 -0.000001 7.688314 34.658913 11.583193 0.034517 0.298043 13.210269 2.364478 -1.611820 -22.465874 0.000001 -0.000000 0.000008 8.566354 0.187378 -5.622662 -0.030776 -0.281671 12.472727 -9.405306 -13.506251 -5.013323 0.000000 -0.000001 -0.000003
0.357516 8.800356 -0.787049 -176.562256 -12.605081 173.124496 1.865430 -12.931835 2.711727 -0.226466 2.003819 -3.660019 -18.531384 18.654577 4.557243 -2.662583 42.060635 8.425268 -13.781442 -2.714904 0.477127 -56.015221 10.596141 1.828048 0.087709 -28.092270 -0.357908 2.103053 -2.526476 13.338756 0.000016 -0.000002 -0.000001 -0.000003 -0.000002 0.000000 0.000003 -0.000000 0.000005 0.000018 -0.000002 0.000003 0.000004 -0.000002 0.000000 0.000004 -0.000003 0.000004 0.000021 -0.000009 0.000009 0.000003 -0.000000 0.000000 0.000003 -0.000000 -0.000001 0.000023 -0.000010 0.000009 0.000006 -0.000002 -0.000001 -0.000006 -0.000000 0.000000 0.000016 -0.000003 0.000007 0.000001 -0.000002 0.000001 -0.000003 0.000002 0.000000 13.621794 -1.248134 -0.476791 54.567154 -9.381645 2.099704 -0.068800 25.183907 -0.315340 -6.890092 -6.552968 12.179827 -0.000015 0.000014 -0.000017 0.000001 -0.000002 0.000002 -0.000004 0.000002 0.000001 -0.000013 -0.000003 -0.000001 -0.000003 0.000002 0.000001 -0.000001 -0.000002 -0.000004 -0.000016 -0.000000 -0.000002 0.000001 -0.000000 -0.000003 -0.000002 -0.000003 0.000000 -0.000015 -0.000002 0.000000 0.000003 -0.000000 0.000001 -0.000003 -0.000002 -0.000001 -0.000010 -0.000002 0.000004 0.000003 -0.000000 -0.000001 -0.000003 0.000002 -0.000002 7.688082 34.616039 11.424298 0.035983 0.304215 13.489063 2.392660 -1.467840 -22.562906 -0.000002 -0.000007 0.000001 8.576965 0.207649 -5.825653 -0.032645 -0.289999 12.847684 -9.368522 -13.546021 -5.179840 0.000001 -0.000001 0.000002
0.359375 8.797911 -0.786739 -176.562256 -12.605079 173.124496 1.810291 -12.942773 2.717468 -0.280433 2.009110 -3.666773 -18.546030 18.648802 4.516981 -2.663597 42.071453 8.347044 -13.726781 -2.762051 0.477207 -55.811672 10.819484 1.893361 0.093154 -28.852844 -0.369412 2.112693 -2.481678 13.218657 0.000005 0.000003 0.000003 -0.000002 -0.000000 -0.000001 0.000005 -0.000000 -0.000003 0.000006 -0.000010 0.000006 -0.000002 -0.000003 -0.000001 -0.000001 -0.000000 -0.000003 0.000010 -0.000010 0.000003 -0.000002 -0.000000 0.000002 0.000004 0.000003 0.000000 0.000003 -0.000007 0.000005 0.000004 -0.000000 -0.000002 0.000004 -0.000002 -0.000001 0.000003 -0.000009 0.000004 0.000002 0.000002 0.000001 0.000002 -0.000002 -0.000001 13.614059 -1.215504 -0.478728 54.583153 -9.615931 2.414116 -0.073755 25.990568 -0.326934 -6.893961 -6.659832 12.289305 -0.000013 0.000012 -0.000015 0.000002 -0.000000 0.000000 -0.000002 -0.000003 0.000002 -0.000018 0.000003 0.000003 -0.000002 -0.000002 -0.000002 0.000006 -0.000002 0.000001 -0.000012 0.000002 -0.000001 -0.000001 -0.000000 -0.000003 -0.000002 -0.000000 -0.000001 -0.000010 0.000005 0.000004 -0.000001 -0.000002 -0.000002 -0.000003 0.000003 0.000001 -0.000009 0.000003 0.000007 0.000006 -0.000000 -0.000001 0.000000 0.000002 0.000001 7.687962 34.562180 11.228448 0.037827 0.311800 13.832135 2.425859 -1.287392 -22.680889 0.000000 -0.000003 0.000002 8.590334 0.233235 -6.074306 -0.035008 -0.300172 13.306531 -9.323465 -13.595283 -5.383024 0.000000 -0.000001 0.000005
